<?xml version="1.0" encoding="utf-8"?>
<!-- Generator: Adobe Illustrator 27.8.0, SVG Export Plug-In . SVG Version: 6.00 Build 0)  -->
<svg version="1.1" id="Layer_1" xmlns="http://www.w3.org/2000/svg" xmlns:xlink="http://www.w3.org/1999/xlink" x="0px" y="0px"
	 viewBox="0 0 1381.3 243.1" style="enable-background:new 0 0 1381.3 243.1;" xml:space="preserve">
<style type="text/css">
	.st0{fill:#8758FF;}
	.st1{fill:#1C1C26;}
</style>
<rect x="324.7" y="18.3" class="st0" width="17.8" height="208.2"/>
<g>
	<path class="st1" d="M459.4,100.7V19c0-1,0.5-1.5,1.4-1.5h18.6c0.6,0,1.3,0.2,1.7,1l32.4,54.4h0.6V19c0-1,0.5-1.5,1.3-1.5h15.9
		c0.8,0,1.3,0.5,1.3,1.5v81.7c0,1-0.5,1.5-1.3,1.5h-18.7c-0.6,0-1.2-0.2-1.7-1l-32.2-54.7h-0.6v54.3c0,1-0.6,1.5-1.4,1.5h-15.8
		C459.9,102.1,459.4,101.6,459.4,100.7z"/>
	<path class="st1" d="M546.4,59.7c0-26.1,16.9-43.1,42.9-43.1c21,0,35.8,11.6,38.3,29.5c0.1,1-0.6,1.5-1.4,1.5h-16.8
		c-0.8,0-1.3-0.5-1.4-1.2c-1.9-9.4-8.3-14.3-18.7-14.3c-14.4,0-22.6,9.9-22.6,27.7c0,18.4,7.7,27.9,22.1,27.9c11,0,18.3-6,20.1-16.9
		H588c-1,0-1.4-0.5-1.4-1.3V57.9c0-1,0.5-1.4,1.4-1.4h38.3c0.8,0,1.4,0.5,1.4,1.4v42.9c0,1-0.6,1.5-1.4,1.5h-13.7
		c-0.8,0-1.4-0.5-1.4-1.5v-9.4h-0.6c-4.3,7.1-14.1,11.8-24.9,11.8C561.5,103.1,546.4,86.4,546.4,59.7z"/>
	<path class="st1" d="M637.3,100.5l28.2-81.9c0.2-0.7,1-1.1,1.7-1.1h21.6c0.7,0,1.4,0.4,1.7,1.1l28.2,81.9c0.2,0.8-0.1,1.6-1.2,1.6
		h-16.9c-0.7,0-1.3-0.4-1.6-1.2l-4.6-15h-33.2l-4.6,15c-0.2,0.7-0.8,1.2-1.6,1.2h-16.5C637.4,102.1,637.1,101.4,637.3,100.5z
		 M689.7,70.9l-11.6-37.8h-0.6l-11.6,37.8H689.7z"/>
	<path class="st1" d="M721.9,59.7c0-26.1,16.9-43.1,42.9-43.1c21,0,35.8,11.6,38.3,29.5c0.1,1-0.6,1.5-1.4,1.5h-16.8
		c-0.8,0-1.3-0.5-1.4-1.2c-1.9-9.4-8.3-14.3-18.7-14.3c-14.4,0-22.6,9.9-22.6,27.7c0,18.4,7.7,27.9,22.1,27.9c11,0,18.3-6,20.1-16.9
		h-20.9c-1,0-1.4-0.5-1.4-1.3V57.9c0-1,0.5-1.4,1.4-1.4h38.3c0.8,0,1.4,0.5,1.4,1.4v42.9c0,1-0.6,1.5-1.4,1.5h-13.7
		c-0.8,0-1.4-0.5-1.4-1.5v-9.4h-0.6c-4.3,7.1-14.1,11.8-24.9,11.8C737,103.1,721.9,86.4,721.9,59.7z"/>
	<path class="st1" d="M820.1,100.7V19c0-1,0.5-1.5,1.4-1.5h55.2c0.8,0,1.4,0.5,1.4,1.5v12.6c0,0.8-0.6,1.4-1.4,1.4h-36.8v18.9h34.4
		c0.8,0,1.4,0.6,1.4,1.5V66c0,0.8-0.6,1.5-1.4,1.5h-34.4v19.3h37.7c0.8,0,1.4,0.6,1.4,1.5v12.6c0,1-0.6,1.5-1.4,1.5h-56.2
		C820.6,102.1,820.1,101.6,820.1,100.7z"/>
	<path class="st1" d="M945.1,100.7V33h-22.9c-1,0-1.4-0.6-1.4-1.4V19c0-1,0.5-1.5,1.4-1.5h65.9c0.8,0,1.3,0.5,1.3,1.5v12.6
		c0,0.8-0.5,1.4-1.3,1.4h-23v67.7c0,1-0.5,1.5-1.4,1.5h-17.1C945.7,102.1,945.1,101.6,945.1,100.7z"/>
	<path class="st1" d="M985,100.5l28.2-81.9c0.2-0.7,1-1.1,1.7-1.1h21.6c0.7,0,1.4,0.4,1.7,1.1l28.2,81.9c0.2,0.8-0.1,1.6-1.2,1.6
		h-16.9c-0.7,0-1.3-0.4-1.6-1.2l-4.6-15h-33.2l-4.6,15c-0.2,0.7-0.8,1.2-1.6,1.2h-16.5C985.1,102.1,984.7,101.4,985,100.5z
		 M1037.3,70.9l-11.6-37.8h-0.6l-11.6,37.8H1037.3z"/>
	<path class="st1" d="M1076.2,100.7V19c0-1,0.5-1.5,1.4-1.5h17.1c0.8,0,1.3,0.5,1.3,1.5v67.7h35.6c0.8,0,1.4,0.6,1.4,1.5v12.6
		c0,1-0.6,1.5-1.4,1.5h-54C1076.7,102.1,1076.2,101.6,1076.2,100.7z"/>
	<path class="st1" d="M1143.9,100.7V19c0-1,0.5-1.5,1.4-1.5h55.2c0.8,0,1.4,0.5,1.4,1.5v12.6c0,0.8-0.6,1.4-1.4,1.4h-36.8v18.9h34.4
		c0.8,0,1.4,0.6,1.4,1.5V66c0,0.8-0.6,1.5-1.4,1.5h-34.4v19.3h37.7c0.8,0,1.4,0.6,1.4,1.5v12.6c0,1-0.6,1.5-1.4,1.5h-56.2
		C1144.4,102.1,1143.9,101.6,1143.9,100.7z"/>
	<path class="st1" d="M1218.2,100.7V19c0-1,0.5-1.5,1.4-1.5h18.6c0.6,0,1.3,0.2,1.7,1l32.4,54.4h0.6V19c0-1,0.5-1.5,1.3-1.5h15.9
		c0.8,0,1.3,0.5,1.3,1.5v81.7c0,1-0.5,1.5-1.3,1.5h-18.7c-0.6,0-1.2-0.2-1.7-1l-32.2-54.7h-0.6v54.3c0,1-0.6,1.5-1.4,1.5h-15.8
		C1218.7,102.1,1218.2,101.6,1218.2,100.7z"/>
	<path class="st1" d="M1326.6,100.7V33h-22.9c-1,0-1.4-0.6-1.4-1.4V19c0-1,0.5-1.5,1.4-1.5h65.9c0.8,0,1.3,0.5,1.3,1.5v12.6
		c0,0.8-0.5,1.4-1.3,1.4h-23v67.7c0,1-0.5,1.5-1.4,1.5h-17.1C1327.2,102.1,1326.6,101.6,1326.6,100.7z"/>
	<path class="st1" d="M455.8,182.6c0-26.1,16.9-43.1,42.9-43.1c21,0,35.8,11.6,38.3,29.5c0.1,1-0.6,1.4-1.4,1.4h-16.7
		c-0.8,0-1.3-0.5-1.4-1.2c-1.9-9.4-8.3-14.3-18.7-14.3c-14.4,0-22.6,9.9-22.6,27.7c0,18.4,7.7,27.9,22.1,27.9c11,0,18.3-6,20.1-16.9
		h-20.9c-1,0-1.4-0.5-1.4-1.3v-11.6c0-1,0.5-1.5,1.4-1.5h38.3c0.8,0,1.4,0.5,1.4,1.5v42.9c0,1-0.6,1.4-1.4,1.4h-13.7
		c-0.8,0-1.4-0.5-1.4-1.4v-9.4h-0.6c-4.3,7.1-14.1,11.8-24.9,11.8C470.9,226,455.8,209.3,455.8,182.6z"/>
	<path class="st1" d="M554,223.6v-81.7c0-1,0.5-1.4,1.4-1.4h35.4c19.7,0,30.1,9.1,30.1,26.2c0,10.5-4.3,18-12.1,20.9v0.6h1.1
		c8.1,0,11,2.9,11,11.4v24c0,1-0.5,1.4-1.3,1.4h-17.3c-0.8,0-1.3-0.5-1.3-1.4V196h-27.1v27.6c0,1-0.5,1.4-1.3,1.4h-17.1
		C554.5,225,554,224.5,554,223.6z M587.1,181c9.2,0,13.7-4,13.7-12.6s-4.4-12.6-13.7-12.6h-13.2V181H587.1z"/>
	<path class="st1" d="M633.3,182.8c0-26.3,16.2-43.4,41.2-43.4s41.2,17,41.2,43.4c0,26.1-16.2,43.1-41.2,43.1
		S633.3,209.1,633.3,182.8z M674.5,210.5c13.3,0,21-10,21-27.7c0-17.8-7.7-27.9-21-27.9s-21,10.2-21,27.9S661.2,210.5,674.5,210.5z"
		/>
	<path class="st1" d="M728.2,190.7v-48.8c0-1,0.5-1.4,1.4-1.4h17.1c0.8,0,1.3,0.5,1.3,1.4v49.4c0,13.2,5.4,19.2,16.4,19.2
		s16.4-6,16.4-19.2v-49.4c0-1,0.6-1.4,1.4-1.4h17.1c0.8,0,1.4,0.5,1.4,1.4v48.8c0,23.7-12.3,35.3-36.4,35.3
		C740.5,226,728.2,214.4,728.2,190.7z"/>
	<path class="st1" d="M817.7,223.6v-81.7c0-1,0.5-1.4,1.4-1.4h31.4c20.4,0,32.1,10.5,32.1,28.6c0,18.2-11.7,28.8-32.1,28.8h-12.9
		v25.7c0,1-0.5,1.4-1.3,1.4h-17.1C818.2,225,817.7,224.5,817.7,223.6z M848.7,182.4c9.2,0,13.8-4.3,13.8-13.3
		c0-8.8-4.6-13.2-13.8-13.2h-11v26.5H848.7z"/>
</g>
<path class="st1" d="M134.6,18H70.1v27.2c-8.6-16-27-27.2-45.5-27.2H12.8v207.4h57.3V75.2h81.2v105.1c0.7,24.8,20.9,45,45.7,45h11.9
	v-55.2V92.3C208.9,51.3,175.6,18,134.6,18z"/>
</svg>
